# Blender v2.83.4 OBJ File: ''
# www.blender.org
mtllib bone.mtl
o Cube_Cube.001
v -0.103151 0.142179 0.103151
v 0.000000 0.000000 0.000000
v -0.103151 0.142179 -0.103151
v 0.103151 0.142179 -0.103151
v 0.103151 0.142179 0.103151
v 0.000000 1.000000 0.000000
vt 0.375000 0.000000
vt 0.625000 0.250000
vt 0.375000 0.250000
vt 0.625000 0.500000
vt 0.375000 0.500000
vt 0.625000 0.750000
vt 0.375000 0.750000
vt 0.625000 1.000000
vt 0.375000 1.000000
vt 0.375000 0.750000
vt 0.375000 0.000000
vt 0.375000 0.500000
vt 0.375000 0.250000
vn 0.8094 0.5872 0.0000
vn 0.0000 0.5872 0.8094
vn -0.8094 0.5872 0.0000
vn 0.0000 0.5872 -0.8094
vn 0.0000 -0.1194 -0.9928
vn 0.9928 -0.1194 0.0000
vn -0.9928 -0.1194 0.0000
vn 0.0000 -0.1194 0.9928
usemtl None
s 1
f 1/1/1 2/2/1 3/3/1
f 3/3/2 2/4/2 4/5/2
f 4/5/3 2/6/3 5/7/3
f 5/7/4 2/8/4 1/9/4
f 5/7/5 1/9/5 6/10/5
f 1/1/6 3/3/6 6/11/6
f 4/5/7 5/7/7 6/12/7
f 3/3/8 4/5/8 6/13/8
